<?xml version="1.0" encoding="utf-8"?><!DOCTYPE svg PUBLIC "-//W3C//DTD SVG 1.1//EN" "http://www.w3.org/Graphics/SVG/1.1/DTD/svg11.dtd"><svg viewBox="0 0 1515.356 966.928" xmlns="http://www.w3.org/2000/svg" xmlns:xlink="http://www.w3.org/1999/xlink"><style>:root>svg{display:none}:root>svg:target{display:block}</style><svg fill="none" viewBox="0 0 42 42" id="arrow_n" xmlns="http://www.w3.org/2000/svg"><path d="M29.75 21H5.25" stroke="#1E293C" stroke-linecap="round" stroke-linejoin="round"/><path d="m38.143 20.786-7.181-4.309a.8.8 0 0 0-1.212.686v7.674a.8.8 0 0 0 1.212.686l7.18-4.309a.25.25 0 0 0 0-.428Z" fill="#1E293C"/></svg><svg fill="none" viewBox="0 0 42 42" id="arrow_p" xmlns="http://www.w3.org/2000/svg"><path d="M12.25 21h24.5" stroke="#1E293C" stroke-linecap="round" stroke-linejoin="round"/><path d="m3.857 21.214 7.181 4.309a.8.8 0 0 0 1.212-.686v-7.674a.8.8 0 0 0-1.212-.686l-7.18 4.309a.25.25 0 0 0 0 .428Z" fill="#1E293C"/></svg><svg xml:space="preserve" style="shape-rendering:geometricPrecision;text-rendering:geometricPrecision;image-rendering:optimizeQuality;fill-rule:evenodd;clip-rule:evenodd" viewBox="0 0 42848696 27341116" id="logo" xmlns="http://www.w3.org/2000/svg"><path d="m16770699 8419959-6741155-1176 4275-8411987L4941940-1l-4692 24056041 5093151-1421 4339-7824538 6729186 310 6947 7818874 4947742 2159-2373-24044531c-424791 0-4789669-3431-4947261-3431-32 193062-1176 1433600-1176 1653262 0 2249346 5782 4502325 2896 6763235zm7267847 15634382 3687145-1026c15592-268257-1090-9220840-1090-9724651 0-3230753 28599-6474309-973-9703437l9470234-5857 15122-3692649c-427965-353-10321804-256-11527479-256-361758 0-1367318 43-1645642 32l2682 23127845zM0 27337546l42848482 3569 214-1848751-42844389 385L0 27337545zm29544475-3286091c297657-130564 1121141-505852 1432509-653377 240460-113924 470083-219342 697002-321094 239102-107202 506515-255625 725162-329515l4307-15273179c-378110-161450-2643005-1169660-2855027-1265833l-3954 17842999zm-1055565 4628 747178-4873 19664-18174214 7204964-652 395 18180658 739088 2479 8079-18898521-8711642-4756-7727 18899879zm-6011536-2768 766810 406 3174-23579321 13966297 267-6765-467667-14725412-64-4104 24046380zM7572151 17024260l867215-834 1368-1005432-866585 321-1998 1005945zm11793887-7227675c-1015 210066-577 817862 385 1008926l860258 1464 75-1012058-860718 1667zm-6968 12942558 107 226203 203 202745 867034 1421 1689-1009258-691701-1731-177160-470-171 581090zM6392680 9598638l877464-289 331-1007804c-592119 973-790386-930-877828 21-1250 11 64 319031-11 341143 2704 210076 2918 460347 43 666928zm-353 1207140 877518 385-118-1007997c-532485 374-720642-192-876235-395-192 0 716 32 545 32-139 0-1411-64-1411 21 21 427-32 951-32 2704 53 54974 43 882648-267 1005250zm1197 12359181 878704 1432c-1699-166815-3195-848075-4264-1007793l-868541-663-5899 1007024zm-203-1205302 876973 438c-737-162369-1411-841630-1582-1005229l-874247-1988-1144 1006778zm11823149-391479-235 392826 831595 1229 481-241037-203-603233-1304-164816-831243 524 908 614508zm1069 1597476 830847 3911-534-1009589-835015-1539 4702 1007216zm-866-12360325 831221 748 1806-1007248-830249-1763-2779 1008264zm1151257 6213661 861220 4147 577-1007537-861882 2960 85 1000430zm-1150723-7419871 832450 556-898-1006789-831756-1518 203 1007751zM6391526 15818070l878875-641-235-1005367-876374-887-2266 1006896zm1180604 7349817 867963-1539 2308-1005592-866328-2490-3944 1009621zm-1179471-6148438 879025 4392-3537-1006084-875904 1977 417 999714zm11823042 4179 833690-1037-3131-1003401-831157-1795 598 1006233zm-577-1207428 830527 780 2779-1003294-831307-1208-1998 1003722zM7570303 10805970l873649 1250-3986-1010732-867141 1817-2522 1007665zM6393258 4547199l876214-278 128-992094-877379-53 1037 992425zm1176970-5696 870368 6305-43-993056-869021 1624-1304 985126zm11797435 6423 857960 663-2105-994007-856678-182 823 993526zm-1149804-1202170 831959-663-1902-997406h-834075l4018 998068zM6392466 2681831l470 659212 876994 5023 449-995097-877454-716-460 331578zm11825457 1866748 830291-588-235-993580-831146 75 1090 994093zM7571691 21961711l870988-427-1817-1006287-868947 192-224 1006522zM19365803 9599046l861423 96-737-1008873-859478 1453-1208 1007323zm1325 6215478 858110 2565 3046-1002578-862620-2148 1464 1002161zm-11796752 898 869396 823 139-1002546-869032-866-502 1002589zm11797243 6145403 857159 1240 2234-1009161-855075-1827-4318 1009749zM7572438 3345020l868818 1079 342-995749-871576 449 2415 994221zm11796377-1806 854968 256 4937-994403-857608-1347-2298 995493zM7571775 9598715l869021-1347-246-1007355-867792 598-983 1008103zm23984277 5884189 461373-82120 17505 98364-461373 82120-17505-98364z" style="fill:#00245d"/></svg><svg version="1.0" viewBox="0 0 558 359" id="logoold" xmlns="http://www.w3.org/2000/svg"><g fill="#063c5e"><path d="m205 25.9-47.5 23.8-.3 32.7c-.1 17.9 0 32.6.3 32.6s4.1-1.4 8.4-3l7.8-3 15.9 8.8c8.7 4.8 21.6 11.9 28.6 15.7l12.8 7V292h4.8c2.6 0 7.7-.3 11.5-.7l6.7-.6V146.4c0-79.4-.4-144.4-.8-144.3-.4 0-22.1 10.7-48.2 23.8zM239 47v14l-5.1 2.5c-2.7 1.4-6.1 3-7.5 3.5l-2.4 1V39l6.3-2.9c3.4-1.6 6.8-3 7.5-3 .9-.1 1.2 3.3 1.2 13.9zm-63 44.2c-1.7 1.6-3.4 2.8-3.8 2.8-.4 0-.5-6.4-.2-14.3.5-14.3.5-14.4 3.5-17.5l3-3.2.3 14.7.3 14.8-3.1 2.7zm63 3.2v14.3l-6.2 2.8c-3.5 1.5-6.9 2.9-7.5 3.2-1 .4-1.3-2.8-1.3-13.9V86.3l6.8-3.1c3.7-1.8 7-3.2 7.5-3.2.4 0 .7 6.5.7 14.4zM271 147c0 143.3 0 144 2 144 1.9 0 2-.7 2-10.5 0-6.1.4-10.5 1-10.5.5 0 2.5.8 4.5 1.7l3.5 1.7V290.7l22.3.6c12.2.4 25.5 1 29.5 1.3l7.2.7-.2-121.9-.3-121.9-17.4-10.1c-9.5-5.6-19-11.8-21-13.7-2-1.9-6.3-5.2-9.6-7.3-3.3-2-9.9-6.4-14.7-9.5L271 3.1V147zm13-96c0 15.4-.1 15.6-6 12.5l-3-1.6V48.1c0-7.6.3-14 .6-14.4.4-.3 2.4.3 4.5 1.4L284 37v14zm45 9.5 7 3.5v14c0 7.7-.4 14-.9 14s-3.9-1.3-7.5-3l-6.6-2.9V71.5c0-8 .2-14.5.5-14.5s3.7 1.6 7.5 3.5zm-49.3 21.7c1.5.7 3.1 1.7 3.6 2.3.8 1 .8 26.5 0 27.7-.2.5-2.2-.1-4.4-1.2l-3.9-2V95c0-8.2.4-14 1-14 .5 0 2.2.6 3.7 1.2zm48.7 25.4 7.6 3.6v13.9c0 9-.4 13.9-1 13.9s-4-1.2-7.5-2.8l-6.4-2.7-.3-14.8c-.2-8.1-.2-14.7-.2-14.7.1 0 3.6 1.6 7.8 3.6zm-46.6 23.1c2.2 1.3 2.3 1.8 2.1 14.8 0 7.4-.4 13.7-.7 13.9-.4.2-2.3-.3-4.2-1.3l-3.5-1.6-.3-14.3-.3-14.4 2.3.7c1.3.4 3.3 1.4 4.6 2.2zm54.2 42c0 7.9-.2 14.3-.4 14.3s-3.7-1.5-7.7-3.4l-7.4-3.3.3-14.5.3-14.6 7.5 3.6 7.4 3.6v14.3zm-52.8 6.7c1.1 1.6.8 27.6-.3 27.6-.4 0-2.4-.8-4.4-1.7l-3.5-1.7V190c0-7.5.3-13.9.6-14.3.8-.7 6.6 2.1 7.6 3.7zm45.8 23.1 7 3.5v14c0 10.6-.3 14-1.2 13.9-2 0-14.1-6.3-13.9-7.2 0-.4.1-6.8.1-14.2 0-7.4.2-13.5.5-13.5s3.7 1.6 7.5 3.5zm-48.5 22.2 3.6 1.7-.2 13.8c-.1 15.1-.2 15.3-5.9 12.3l-3-1.6V237c0-8.3.4-14 1-14 .5 0 2.5.8 4.5 1.7zm55.3 42.1c.2 9.2-.1 14.2-.8 14.2-.5 0-4-1.4-7.7-3l-6.8-3 .3-14.5.3-14.4 7.2 3.3 7.2 3.2.3 14.2zM374.5 95.8c-22.1 13.3-23 13.9-23.3 17.1l-.3 3.4 3.3-2c1.8-1.1 11.6-7 21.7-13.1C386 95 394.4 90 394.6 90c.2 0 .4 47 .4 104.4v104.4l6.3 1.1c3.5.6 6.9 1.1 7.5 1.1.9 0 1.2-24.4 1.2-100 0-55 .2-100 .4-100s2 .7 4 1.5l3.6 1.5v198.7l8.8 1.7c4.8 1 9.7 2 11 2.3l2.2.5V104.5l-4.8-2.5c-2.6-1.4-11.8-6.5-20.5-11.3-8.7-4.8-16.1-8.7-16.5-8.7-.4 0-11 6.2-23.7 13.8z"/><path d="m154.8 127.2-19.8 11v166l2.3-.5c1.2-.3 4.3-.9 7-1.2l4.7-.7V140.9l3.5-1.5c1.9-.7 3.7-1.4 4-1.4.3 0 .5 36.5.5 81.1v81.1l3.3-.5c1.7-.3 5.1-.9 7.5-1.2l4.2-.7-.2-86.9c-.2-57.4 0-86.9.7-86.9.6 0 2.4.8 4 1.8 4.2 2.6 46.1 24.2 46.9 24.2.3 0 .6-1.3.6-2.9 0-2.7-1.5-3.7-24-17-13.3-7.7-24.4-14.1-24.8-14-.4 0-9.6 5-20.4 11.1zM351 208.9v84.7l17.8 2.1c9.7 1.1 18 1.9 18.5 1.6.9-.6.9-151.3-.1-151.3-.4 0-8.7-4.9-18.5-10.9L351 124.2v84.7z"/><path d="m201.5 169.4-22 11.3-.3 58.2-.2 58.3 4.2-.6c8.1-1.2 33-3.6 36.9-3.6h3.9v-67.5c0-37.1-.1-67.5-.2-67.5-.2 0-10.2 5.1-22.3 11.4zM251.5 300.6c-53.5 2.6-89.4 7.2-134.3 16.9-10.9 2.3-36.9 10-51.1 15.1-12.8 4.6-43.8 19-42.9 19.9.3.3 4.1-.6 8.4-1.9C78.3 336 149 325 221 321c23.9-1.3 94.1-1.3 118 0 72.8 4 147 15.7 190.8 30.1 3.5 1.2 6.6 1.8 6.9 1.5 1-1-29.5-15.2-42.9-20C450 316.9 400 307.1 340 302.5c-17.9-1.4-74.3-2.6-88.5-1.9z"/></g></svg><svg xml:space="preserve" style="shape-rendering:geometricPrecision;text-rendering:geometricPrecision;image-rendering:optimizeQuality;fill-rule:evenodd;clip-rule:evenodd" viewBox="0 0 15785.75 15785.75" id="noimage" xmlns="http://www.w3.org/2000/svg"><path style="fill:#ebecec" d="M0 0h15785.75v15785.75H0z"/><path d="M1231.39 14554.41c-49.97-55.33-48.6-56.84 860.07-965.94l910.23-910.34 105.73 105.73-912.99 912.95-912.79 912.98-50.26-55.38zm12363.08-854.28-906.2-906.5 55.33-50.11c55.34-50.11 56.86-48.71 959.22 853.63l903.6 903.6-52.87 53-52.87 52.87-906.21-906.49zM5989.59 8132.22c-29.04-12.09-82.62-54.1-118.95-93.19l-66.09-71.06-7.43-1140.38c-7.96-1225.22-6.06-1246.02 127.35-1341.01 64.42-45.85 117.71-52.19 439.33-52.58 201.3-.14 382.88-11.18 403.68-24.25 20.65-13.08 104.79-134.79 186.84-270.56 223.04-368.95 211.62-364.69 965.95-365.25 772.8-.56 772.66-.56 996.26 367.76 83.14 136.97 166.33 258.67 185.04 270.52 18.57 11.7 191.92 21.64 385.38 21.78 392.64.53 478.01 25.45 547.55 159.7 35.39 68.56 39.93 232.94 33.45 1228.36l-7.44 1149.08-172.77 172.77-1922.7 5.26c-1057.38 2.89-1946.38-4.83-1975.43-16.95zm3887.1-172.1 64.85-64.81V6800.6c0-1359.15 48.33-1234.03-476.52-1234.03-203.91 0-394.44-12.52-428.84-28.2-34.86-15.86-125.87-134.53-207.63-270.83-221.13-368.71-204.19-361.83-896.02-361.83-691.85 0-674.89-6.87-896.02 361.83-81.78 136.3-172.78 254.97-207.6 270.83-34.44 15.69-224.98 28.2-428.87 28.2-524.85 0-476.53-125.13-476.53 1234.03v1094.71l64.86 64.81 64.99 64.85h3758.35l64.99-64.85zm-2290.7-260.19c-269.57-113.6-431.48-266.99-548.92-519.63-57.14-122.8-68.31-185.14-68.84-384.53-.42-212.01 8.39-256.63 81.21-409.73 362.93-762.34 1403.25-762.34 1766.18 0 72.01 151.44 81.64 198.54 80.54 396.51-2.22 396.66-176.79 690.05-519.21 873.18-147.71 79.17-194.09 90.3-404.76 98.02-203.09 7.43-259.66-.42-386.18-53.82zm696.38-149.55c358.92-170.56 554.85-576.45 459.02-950.94-101.34-395.14-406.84-635.13-808.86-635.13-402.02 0-707.53 239.98-808.86 635.13-106.16 414.29 141.26 857.89 553.89 992.81 158.04 51.77 450.33 31.54 604.81-41.87zm250.28-705.17c-10.18-10.18-18.57-42.01-18.57-70.49 0-127.52-70.92-275.91-187.65-393.25-104.93-105.31-147.19-128.43-285.56-155.57-179.79-35.39-213.94-62.77-153.49-123.22 100.34-100.35 483.64 62.24 622.3 263.81 92.24 134.08 144.69 293.91 132.31 403.11-8.52 74.9-68.55 116.35-109.33 75.6zm430.81-697.09c-78.74-78.6-70.49-220.14 16.81-288.84 79.41-62.49 113.18-66.65 203.76-25.49 185.32 84.55 124.32 367.2-79.3 367.2-53.15 0-109.48-21.04-141.27-52.87zm185.04-132.17c0-35.25-17.62-52.87-52.87-52.87-50.92 0-71.59 51.78-35.24 88.12 36.34 36.48 88.11 15.72 88.11-35.25zm-7058-3819.78-911.19-911.29 105.74-105.73 911.18 911.29 911.18 911.46-105.73 105.73-911.18-911.46zm10644.84 838.32c-40.21-44.58 10.33-100.49 863.1-952.87l905.78-905.65 50.12 55.34c49.97 55.37 48.47 57.14-847.14 952.88-493.44 493.72-904.41 897.53-913.09 897.53-8.81 0-35.1-21.18-58.79-47.23zM4248.43 9283.91v-103.8h101.51v103.8c103.99 5.52 186.11 36.88 246.18 94.11 60.27 57.22 90.3 128.12 90.3 212.91 0 83.08-29.08 153.6-87.44 211.77-58.36 57.99-141.24 90.11-249.04 96v104.94h-101.51V9898.7c-96.57-3.81-176.99-33.27-241.24-88.59-64.25-55.13-96.37-128.31-96.37-219.18 0-91.06 32.12-164.05 96.18-218.8s144.48-84.02 241.43-88.21zm101.51 92.39v430.01c69.77-3.43 124.52-23.77 164.63-61.02 40.11-37.26 60.07-88.59 60.07-153.98 0-64.25-19.57-115.01-58.93-152.65-39.35-37.45-94.48-58.17-165.77-62.35zm-101.51 1.15c-67.3 3.04-121.67 22.81-163.3 59.69-41.63 36.88-62.54 88.21-62.54 154.17 0 65.2 20.53 116.34 61.59 153.6 41.06 37.26 95.81 57.22 164.25 60.27v-427.72zm521.63 330.2c0-109.31 30.42-190.29 91.44-242.95 50.76-43.72 112.93-65.58 186.11-65.58 81.18 0 147.71 26.61 199.42 79.84 51.51 53.04 77.37 126.61 77.37 220.33 0 76.03-11.41 135.73-34.22 179.26-22.82 43.53-56.08 77.37-99.81 101.52-43.53 24.14-91.25 36.12-142.76 36.12-82.89 0-149.79-26.43-200.94-79.47-51.13-53.03-76.61-129.45-76.61-229.06zm102.66.19c0 75.66 16.54 132.31 49.62 169.76 33.27 37.64 74.9 56.46 125.28 56.46 49.81 0 91.25-18.82 124.52-56.65 33.08-37.83 49.62-95.43 49.62-172.8 0-72.99-16.72-128.31-49.99-165.76-33.27-37.65-74.71-56.46-124.14-56.46-50.37 0-92.01 18.62-125.28 56.08-33.08 37.45-49.62 93.91-49.62 169.38zm491.79-296.18h479.06v83.26h-189.34v508.71h-100.38v-508.71h-189.34v-83.26zM5889 9707.65c0-109.31 30.42-190.29 91.44-242.95 50.76-43.72 112.93-65.58 186.11-65.58 81.18 0 147.71 26.61 199.42 79.84 51.51 53.04 77.37 126.61 77.37 220.33 0 76.03-11.41 135.73-34.22 179.26-22.82 43.53-56.08 77.37-99.81 101.52-43.53 24.14-91.25 36.12-142.76 36.12-82.89 0-149.79-26.43-200.94-79.47-51.13-53.03-76.61-129.45-76.61-229.06zm102.66.19c0 75.66 16.54 132.31 49.62 169.76 33.27 37.64 74.9 56.46 125.28 56.46 49.81 0 91.25-18.82 124.52-56.65 33.08-37.83 49.62-95.43 49.62-172.8 0-72.99-16.72-128.31-49.99-165.76-33.27-37.65-74.71-56.46-124.14-56.46-50.37 0-92.01 18.62-125.28 56.08-33.08 37.45-49.62 93.91-49.62 169.38zm886.25-296.18h230.97c56.65 0 98.85 4.76 126.61 14.26 27.57 9.51 51.32 26.81 71.1 52.09 19.96 25.48 29.84 55.7 29.84 91.06 0 28.32-5.89 53.03-17.48 73.94-11.79 21.1-29.27 38.78-52.85 52.85 27.75 9.31 50.75 26.62 69.2 52.08 18.25 25.29 27.38 55.51 27.38 90.3-3.61 56.08-23.76 97.71-60.08 124.71-36.31 27.19-89.15 40.68-158.35 40.68h-266.33v-591.98zm100.37 249.79h106.45c42.39 0 71.68-2.28 87.45-6.65 15.97-4.57 30.22-13.5 42.77-27.19 12.55-13.5 18.82-29.84 18.82-48.86 0-31.36-11.03-53.03-32.89-65.39-22.05-12.36-59.7-18.44-112.92-18.44h-109.69v166.53zm0 260.06h131.74c56.65 0 95.62-6.65 116.72-19.77 21.1-13.3 32.12-35.93 33.26-68.43 0-18.82-6.08-36.51-18.24-52.66-12.36-16.16-28.32-26.43-47.91-30.6-19.58-4.38-51.13-6.46-94.48-6.46h-121.09v177.93zm505.67 309.1v-818.95h91.25v77.76c21.48-30.04 45.81-52.66 72.99-67.68 27-15.02 59.89-22.62 98.47-22.62 50.57 0 95.05 12.92 133.64 38.96 38.6 25.86 67.68 62.54 87.45 109.69 19.58 47.34 29.46 99.04 29.46 155.5 0 60.27-10.83 114.63-32.51 163.1-21.67 48.29-53.22 85.36-94.66 111.21-41.25 25.67-84.78 38.6-130.41 38.6-33.45 0-63.49-7.03-89.92-21.1-26.61-14.07-48.28-31.75-65.39-53.23v288.76h-100.37zm91.25-519.35c0 75.85 15.4 131.93 46 168.24 30.8 36.31 68.06 54.56 111.78 54.56 44.49 0 82.51-18.82 114.07-56.46 31.74-37.64 47.52-95.81 47.52-174.7 0-75.28-15.4-131.55-46.38-169-30.99-37.45-67.87-56.08-110.83-56.08-42.58 0-80.22 19.96-112.92 59.69-32.89 39.92-49.24 97.71-49.24 173.75zm946.89 100.76 103.8 13.69c-16.16 60.26-46.38 107.21-90.49 140.48-44.1 33.26-100.37 49.99-169 49.99-86.3 0-154.74-26.62-205.3-79.85-50.56-53.03-75.85-127.74-75.85-223.75 0-99.23 25.48-176.41 76.61-231.16 51.13-54.93 117.48-82.31 199.03-82.31 78.9 0 143.34 26.8 193.34 80.6 49.99 53.8 75.09 129.46 75.09 226.99 0 5.88-.19 14.83-.57 26.61h-440.84c3.8 64.83 22.05 114.64 55.13 149.05 32.88 34.41 74.13 51.7 123.37 51.7 36.69 0 68.06-9.69 93.92-29.08 26.04-19.39 46.57-50.37 61.77-92.96zm-328.48-160.82h329.63c-4.38-49.81-17.11-87.07-37.84-111.97-31.74-38.6-73.18-57.99-123.94-57.99-46.01 0-84.6 15.41-115.97 46.2-31.18 30.79-48.48 72.04-51.89 123.76zm562.5-239.53h154.36l156.46 473.73 173.17-473.73h143.34v591.98h-100.37v-476.58l-174.32 476.58h-89.73l-164.82-499.39v499.39h-98.09v-591.98zm1184.51 400.36 103.8 13.69c-16.16 60.26-46.38 107.21-90.49 140.48-44.1 33.26-100.37 49.99-169 49.99-86.3 0-154.74-26.62-205.3-79.85-50.56-53.03-75.85-127.74-75.85-223.75 0-99.23 25.48-176.41 76.61-231.16 51.13-54.93 117.48-82.31 199.03-82.31 78.9 0 143.34 26.8 193.34 80.6 49.99 53.8 75.09 129.46 75.09 226.99 0 5.88-.19 14.83-.57 26.61h-440.84c3.8 64.83 22.05 114.64 55.13 149.05 32.88 34.41 74.13 51.7 123.37 51.7 36.69 0 68.06-9.69 93.92-29.08 26.04-19.39 46.57-50.37 61.77-92.96zm-328.48-160.82h329.63c-4.38-49.81-17.11-87.07-37.84-111.97-31.74-38.6-73.18-57.99-123.94-57.99-46.01 0-84.6 15.41-115.97 46.2-31.18 30.79-48.48 72.04-51.89 123.76zm559.09-239.53h100.37v246.38h278.31v-246.38h100.37v591.98h-100.37v-262.33h-278.31v262.33h-100.37v-591.98zm629.8 0h100.37v246.38h278.31v-246.38h100.37v591.98h-100.37v-262.33h-278.31v262.33h-100.37v-591.98zm592.16 295.99c0-109.31 30.42-190.29 91.44-242.95 50.76-43.72 112.93-65.58 186.11-65.58 81.18 0 147.71 26.61 199.42 79.84 51.51 53.04 77.37 126.61 77.37 220.33 0 76.03-11.41 135.73-34.22 179.26-22.82 43.53-56.08 77.37-99.81 101.52-43.53 24.14-91.25 36.12-142.76 36.12-82.89 0-149.79-26.43-200.94-79.47-51.13-53.03-76.61-129.45-76.61-229.06zm102.66.19c0 75.66 16.54 132.31 49.62 169.76 33.27 37.64 74.9 56.46 125.28 56.46 49.81 0 91.25-18.82 124.52-56.65 33.08-37.83 49.62-95.43 49.62-172.8 0-72.99-16.72-128.31-49.99-165.76-33.27-37.65-74.71-56.46-124.14-56.46-50.37 0-92.01 18.62-125.28 56.08-33.08 37.45-49.62 93.91-49.62 169.38zm-6590.3 1274.06c0-109.31 30.42-190.29 91.44-242.95 50.76-43.72 112.93-65.58 186.11-65.58 81.18 0 147.71 26.61 199.42 79.84 51.51 53.04 77.37 126.61 77.37 220.33 0 76.03-11.41 135.73-34.22 179.26-22.82 43.53-56.08 77.37-99.81 101.52-43.53 24.14-91.25 36.12-142.76 36.12-82.89 0-149.79-26.43-200.94-79.47-51.13-53.03-76.61-129.45-76.61-229.06zm102.66.19c0 75.66 16.54 132.31 49.62 169.76 33.27 37.64 74.9 56.46 125.28 56.46 49.81 0 91.25-18.82 124.52-56.65 33.08-37.83 49.62-95.43 49.62-172.8 0-72.99-16.72-128.31-49.99-165.76-33.27-37.65-74.71-56.46-124.14-56.46-50.37 0-92.01 18.62-125.28 56.08-33.08 37.45-49.62 93.91-49.62 169.38zm491.79-296.18h479.06v83.26h-189.34v508.71h-100.38v-508.71H5500v-83.26zm948.79 375.26 98.09 13.69c-10.84 67.49-38.21 120.14-82.51 158.36-44.29 38.21-98.85 57.22-163.29 57.22-80.8 0-145.81-26.43-194.85-79.28-49.24-52.84-73.75-128.5-73.75-226.98 0-63.87 10.64-119.57 31.74-167.48 21.1-47.72 53.23-83.64 96.57-107.4 43.15-23.96 90.11-35.93 141.05-35.93 64.06 0 116.72 16.16 157.41 48.67 40.86 32.5 67.1 78.7 78.51 138.39l-96.95 14.83c-9.31-39.72-25.67-69.57-49.43-89.72-23.58-19.96-52.09-30.04-85.54-30.04-50.57 0-91.64 18.06-123.38 54.18-31.56 36.31-47.34 93.34-47.34 171.67 0 79.46 15.21 137.06 45.63 172.98 30.6 35.93 70.34 53.99 119.19 53.99 39.53 0 72.42-11.98 98.66-36.12 26.43-23.96 43.15-61.02 50.18-111.02zm179.07 444.27-11.41-92.78c22.06 5.89 41.06 8.94 57.42 8.94 22.43 0 40.29-3.81 53.6-11.22 13.5-7.41 24.53-17.87 33.08-31.18 6.27-10.07 16.54-34.98 30.6-74.89 1.91-5.52 4.76-13.69 8.94-24.53l-224.7-593.87h107.21l123.57 341.8c16.16 43.15 30.41 88.78 43.15 136.69 11.59-45.06 25.28-89.54 41.25-133.26l126.23-345.23h100.18l-223.75 602.24c-24.14 64.83-42.96 109.31-56.46 133.84-17.87 32.88-38.41 57.03-61.4 72.42-23.19 15.4-50.75 23-82.7 23-19.38 0-41.05-3.99-64.82-11.97zm522.39-819.53h479.06v83.26h-189.34v508.71h-100.38v-508.71h-189.34v-83.26zm948.79 375.26 98.09 13.69c-10.84 67.49-38.21 120.14-82.51 158.36-44.29 38.21-98.85 57.22-163.29 57.22-80.8 0-145.81-26.43-194.85-79.28-49.24-52.84-73.75-128.5-73.75-226.98 0-63.87 10.64-119.57 31.74-167.48 21.1-47.72 53.23-83.64 96.57-107.4 43.15-23.96 90.11-35.93 141.05-35.93 64.06 0 116.72 16.16 157.41 48.67 40.86 32.5 67.1 78.7 78.51 138.39l-96.95 14.83c-9.31-39.72-25.67-69.57-49.43-89.72-23.58-19.96-52.09-30.04-85.54-30.04-50.57 0-91.64 18.06-123.38 54.18-31.56 36.31-47.34 93.34-47.34 171.67 0 79.46 15.21 137.06 45.63 172.98 30.6 35.93 70.34 53.99 119.19 53.99 39.53 0 72.42-11.98 98.66-36.12 26.43-23.96 43.15-61.02 50.18-111.02zm131.16-375.26h479.06v83.26h-189.34v508.71h-100.38v-508.71H8230.2v-83.26zm574.87 0h230.97c56.65 0 98.85 4.76 126.61 14.26 27.57 9.51 51.32 26.81 71.1 52.09 19.96 25.48 29.84 55.7 29.84 91.06 0 28.32-5.89 53.03-17.48 73.94-11.79 21.1-29.27 38.78-52.85 52.85 27.75 9.31 50.75 26.62 69.2 52.08 18.25 25.29 27.38 55.51 27.38 90.3-3.61 56.08-23.76 97.71-60.08 124.71-36.31 27.19-89.15 40.68-158.35 40.68h-266.33v-591.98zm100.37 249.79h106.45c42.39 0 71.68-2.28 87.45-6.65 15.97-4.57 30.22-13.5 42.77-27.19 12.55-13.5 18.82-29.84 18.82-48.86 0-31.36-11.03-53.03-32.89-65.39-22.05-12.36-59.7-18.44-112.92-18.44h-109.69v166.53zm0 260.06h131.74c56.65 0 95.62-6.65 116.72-19.77 21.1-13.3 32.12-35.93 33.26-68.43 0-18.82-6.08-36.51-18.24-52.66-12.36-16.16-28.32-26.43-47.91-30.6-19.58-4.38-51.13-6.46-94.48-6.46h-121.09v177.93zm476.01 309.68-11.41-92.78c22.06 5.89 41.06 8.94 57.42 8.94 22.43 0 40.29-3.81 53.6-11.22 13.5-7.41 24.53-17.87 33.08-31.18 6.27-10.07 16.54-34.98 30.6-74.89 1.91-5.52 4.76-13.69 8.94-24.53l-224.7-593.87h107.21l123.57 341.8c16.16 43.15 30.41 88.78 43.15 136.69 11.59-45.06 25.28-89.54 41.25-133.26l126.23-345.23h100.18l-223.75 602.24c-24.14 64.83-42.96 109.31-56.46 133.84-17.87 32.88-38.41 57.03-61.4 72.42-23.19 15.4-50.75 23-82.7 23-19.38 0-41.05-3.99-64.82-11.97zm965.89-419.17 103.8 13.69c-16.16 60.26-46.38 107.21-90.49 140.48-44.1 33.26-100.37 49.99-169 49.99-86.3 0-154.74-26.62-205.3-79.85-50.56-53.03-75.85-127.74-75.85-223.75 0-99.23 25.48-176.41 76.61-231.16 51.13-54.93 117.48-82.31 199.03-82.31 78.9 0 143.34 26.8 193.34 80.6 49.99 53.8 75.09 129.46 75.09 226.99 0 5.88-.19 14.83-.57 26.61h-440.84c3.8 64.83 22.05 114.64 55.13 149.05 32.88 34.41 74.13 51.7 123.37 51.7 36.69 0 68.06-9.69 93.92-29.08 26.04-19.39 46.57-50.37 61.77-92.96zm-328.48-160.82h329.63c-4.38-49.81-17.11-87.07-37.84-111.97-31.74-38.6-73.18-57.99-123.94-57.99-46.01 0-84.6 15.41-115.97 46.2-31.18 30.79-48.48 72.04-51.89 123.76zm468.79-239.53h479.06v83.26h-189.34v508.71h-100.38v-508.71h-189.34v-83.26z" style="fill:#898989;fill-rule:nonzero"/></svg><svg fill="none" viewBox="0 0 100 100" id="parking-advantages-2" xmlns="http://www.w3.org/2000/svg"><g clip-path="url(#fa)" fill="#1E293C"><path d="M98.333 48.333h-30V1.667a1.667 1.667 0 0 0-3.333 0v46.666H35V1.667a1.667 1.667 0 1 0-3.333 0v46.666h-30a1.667 1.667 0 1 0 0 3.334h30v46.666a1.667 1.667 0 1 0 3.333 0V51.667h30v46.666a1.666 1.666 0 1 0 3.333 0V51.667h30a1.666 1.666 0 1 0 0-3.334Z"/><path d="M21.667 45a6.667 6.667 0 0 0 6.666-6.667V11.667A6.666 6.666 0 0 0 21.667 5h-10A6.667 6.667 0 0 0 5 11.667v26.666A6.667 6.667 0 0 0 11.667 45h10ZM8.333 11.667a3.333 3.333 0 0 1 3.334-3.334h10A3.333 3.333 0 0 1 25 11.667v3.025a25.452 25.452 0 0 0-8.333-1.359 25.452 25.452 0 0 0-8.334 1.359v-3.025Zm0 6.626a21.52 21.52 0 0 1 8.334-1.626A21.52 21.52 0 0 1 25 18.293v3.374H8.333v-3.374Zm0 6.707H25v8.333H8.333V25Zm0 13.333v-1.666H25v1.666a3.334 3.334 0 0 1-3.333 3.334h-10a3.333 3.333 0 0 1-3.334-3.334ZM55 95a6.667 6.667 0 0 0 6.667-6.667V61.667A6.667 6.667 0 0 0 55 55H45a6.667 6.667 0 0 0-6.667 6.667v26.666A6.667 6.667 0 0 0 45 95h10ZM41.667 61.667A3.334 3.334 0 0 1 45 58.333h10a3.333 3.333 0 0 1 3.333 3.334v1.666H41.667v-1.666Zm0 5h16.666V75H41.667v-8.333Zm0 11.666h16.666v3.374a22.167 22.167 0 0 1-16.666 0v-3.374Zm0 10v-3.025a26.241 26.241 0 0 0 16.666 0v3.025A3.334 3.334 0 0 1 55 91.667H45a3.333 3.333 0 0 1-3.333-3.334ZM88.333 45A6.667 6.667 0 0 0 95 38.333V11.667A6.667 6.667 0 0 0 88.333 5h-10a6.667 6.667 0 0 0-6.666 6.667v26.666A6.667 6.667 0 0 0 78.333 45h10ZM75 11.667a3.333 3.333 0 0 1 3.333-3.334h10a3.334 3.334 0 0 1 3.334 3.334v1.666H75v-1.666Zm0 5h16.667V25H75v-8.333Zm0 11.666h16.667v3.374a22.167 22.167 0 0 1-16.667 0v-3.374Zm0 10v-3.025a26.242 26.242 0 0 0 16.667 0v3.025a3.334 3.334 0 0 1-3.334 3.334h-10A3.333 3.333 0 0 1 75 38.333ZM78.333 95h10A6.667 6.667 0 0 0 95 88.333V61.667A6.667 6.667 0 0 0 88.333 55h-10a6.667 6.667 0 0 0-6.666 6.667v26.666A6.667 6.667 0 0 0 78.333 95ZM75 61.667a3.334 3.334 0 0 1 3.333-3.334h10a3.334 3.334 0 0 1 3.334 3.334v3.025a26.242 26.242 0 0 0-16.667 0v-3.025Zm0 6.626a22.167 22.167 0 0 1 16.667 0v3.374H75v-3.374ZM75 75h16.667v8.333H75V75Zm0 11.667h16.667v1.666a3.334 3.334 0 0 1-3.334 3.334h-10A3.333 3.333 0 0 1 75 88.333v-1.666ZM11.667 90V80H15a10 10 0 0 0 0-20h-5a1.667 1.667 0 0 0-1.667 1.667V90a1.667 1.667 0 1 0 3.334 0Zm0-26.667H15a6.666 6.666 0 1 1 0 13.334h-3.333V63.333Zm33.333-25v-10h3.333a10 10 0 1 0 0-20h-5A1.667 1.667 0 0 0 41.667 10v28.333a1.667 1.667 0 1 0 3.333 0Zm0-26.666h3.333a6.667 6.667 0 1 1 0 13.333H45V11.667Z"/></g><defs><clipPath id="fa"><path fill="#fff" d="M0 0h100v100H0z"/></clipPath></defs></svg><svg fill="none" viewBox="0 0 100 100" id="parking-advantages-3" xmlns="http://www.w3.org/2000/svg"><path d="m68.292 33.27-4.688-4.687a1.563 1.563 0 0 0-2.209 0L43.75 46.228l-5.146-5.145a1.563 1.563 0 0 0-2.209 0l-4.688 4.687a1.563 1.563 0 0 0 0 2.21l10.938 10.937a1.562 1.562 0 0 0 2.21 0L68.291 35.48a1.563 1.563 0 0 0 0-2.21ZM43.75 55.603l-8.728-8.728 2.478-2.478 5.145 5.145a1.562 1.562 0 0 0 2.21 0L62.5 31.897l2.478 2.478L43.75 55.603Z" fill="#1E293C"/><path d="M20.595 66.11a47.444 47.444 0 0 1-3.407-17.593V16.53A64.122 64.122 0 0 0 50 6.54a64.122 64.122 0 0 0 32.813 9.99v31.987a47.636 47.636 0 0 1-6.65 24.199l3.268.503a50.6 50.6 0 0 0 6.507-24.702V14.986a1.562 1.562 0 0 0-1.563-1.563 60.98 60.98 0 0 1-32.792-9.58l-.744-.468a1.563 1.563 0 0 0-1.678 0l-.744.469a60.97 60.97 0 0 1-32.792 9.58 1.562 1.562 0 0 0-1.563 1.562v33.531a50.468 50.468 0 0 0 3.808 19.149l2.725-1.555Z" fill="#1E293C"/><path d="M76.563 48.517V23.75a1.563 1.563 0 0 0-1.36-1.549 70.114 70.114 0 0 1-24.456-7.968 1.563 1.563 0 0 0-1.494 0A70.09 70.09 0 0 1 24.795 22.2a1.563 1.563 0 0 0-1.358 1.549v24.767A41.271 41.271 0 0 0 26.081 63c.95-.433 1.942-.77 2.96-1.006a38.104 38.104 0 0 1-2.479-13.477V25.103A73.205 73.205 0 0 0 50 17.373a73.205 73.205 0 0 0 23.438 7.73v23.414a38.304 38.304 0 0 1-6.302 20.958l2.739 1.494a41.406 41.406 0 0 0 6.688-22.452Z" fill="#1E293C"/><path d="m96.499 84.79-1.241-4.009a1.54 1.54 0 0 0-.094-.236 5.312 5.312 0 0 0-4.284-2.407l-19.885-3.055a.86.86 0 0 1-.278-.094l-14.55-7.94a36.596 36.596 0 0 0-15.501-2.987c-10.55 0-13.258 1.693-14.414 2.416l-8.688 4.974a3.195 3.195 0 0 1-1.59.423h-4.98c-3.197 0-5.469 2.166-6.202 5.872l-1.578 6.316a4.913 4.913 0 0 0 1.124 4.112 6.771 6.771 0 0 0 5.093 2.45h4.844a7.813 7.813 0 0 0 15.303 0h39.356a7.812 7.812 0 0 0 15.303 0h8.516a4.12 4.12 0 0 0 3.75-5.834H96.5Zm-32.436-9.87a664.289 664.289 0 0 1-21.841-.698v-7.005c4.276.033 8.504.908 12.442 2.575l9.398 5.128Zm-36.155-5.792c.8-.5 2.86-1.783 11.195-1.927v6.862c-5.976-.336-12-.791-17.331-1.407l6.136-3.528ZM21.925 93.75a4.687 4.687 0 1 1 0-9.375 4.687 4.687 0 0 1 0 9.375Zm54.661 0a4.688 4.688 0 1 1 0-9.375 4.688 4.688 0 0 1 0 9.375Zm17.008-6.719a.98.98 0 0 1-.845.469h-8.516a7.812 7.812 0 0 0-15.303 0H29.577a7.812 7.812 0 0 0-15.304 0H9.43a3.66 3.66 0 0 1-2.677-1.302 1.85 1.85 0 0 1-.492-1.445l1.578-6.316C8.295 76.162 9.356 75 10.994 75h4.773C33.12 77.722 63.15 78.073 70.3 78.125c.071.014 20.101 3.112 20.101 3.112.692.038 1.36.27 1.927.67l1.215 3.923c.025.08.057.16.096.236a.984.984 0 0 1-.044.965Z" fill="#1E293C"/></svg><svg fill="none" viewBox="0 0 10 10" id="select-arrow" xmlns="http://www.w3.org/2000/svg"><path d="M4.964 9.351 9.273 2.17A.8.8 0 0 0 8.587.958H.913A.8.8 0 0 0 .227 2.17l4.309 7.181a.25.25 0 0 0 .428 0Z" fill="#1E293C"/></svg><svg fill="none" viewBox="0 0 21 21" id="zoom-icon" xmlns="http://www.w3.org/2000/svg"><path d="M14 9h-3V6a1 1 0 0 0-2 0v3H6a1 1 0 1 0 0 2h3v3a1 1 0 1 0 2 0v-3h3a1 1 0 1 0 0-2Zm6.71 10.29L17 15.61A9 9 0 1 0 15.61 17l3.68 3.68a.999.999 0 0 0 1.42 0 1 1 0 0 0 0-1.39ZM10 17a7 7 0 1 1 0-14 7 7 0 0 1 0 14Z" fill="#000"/></svg></svg>