<?xml version="1.0" standalone="no"?>
<!DOCTYPE svg PUBLIC "-//W3C//DTD SVG 20010904//EN"
 "http://www.w3.org/TR/2001/REC-SVG-20010904/DTD/svg10.dtd">
<svg version="1.0" xmlns="http://www.w3.org/2000/svg"
 width="558.000000pt" height="359.000000pt" viewBox="0 0 558.000000 359.000000"
 preserveAspectRatio="xMidYMid meet">

<g transform="translate(0.000000,359.000000) scale(0.100000,-0.100000)"
fill="#063c5e" stroke="none">
<path d="M2050 3331 l-475 -238 -3 -327 c-1 -179 0 -326 3 -326 3 0 41 14 84
30 l78 30 159 -88 c87 -48 216 -119 286 -157 l128 -70 0 -757 0 -758 48 0 c26
0 77 3 115 7 l67 6 0 1443 c0 794 -4 1444 -8 1443 -4 0 -221 -107 -482 -238z
m340 -211 l0 -140 -51 -25 c-27 -14 -61 -30 -75 -35 l-24 -10 0 145 0 145 63
29 c34 16 68 30 75 30 9 1 12 -33 12 -139z m-630 -442 c-17 -16 -34 -28 -38
-28 -4 0 -5 64 -2 143 5 143 5 144 35 175 l30 32 3 -147 3 -148 -31 -27z m630
-32 l0 -143 -62 -28 c-35 -15 -69 -29 -75 -32 -10 -4 -13 28 -13 139 l0 145
68 31 c37 18 70 32 75 32 4 0 7 -65 7 -144z"/>
<path d="M2710 2120 c0 -1433 0 -1440 20 -1440 19 0 20 7 20 105 0 61 4 105
10 105 5 0 25 -8 45 -17 l35 -17 0 -86 0 -87 223 -6 c122 -4 255 -10 295 -13
l72 -7 -2 1219 -3 1219 -174 101 c-95 56 -190 118 -210 137 -20 19 -63 52 -96
73 -33 20 -99 64 -147 95 l-88 58 0 -1439z m130 960 c0 -154 -1 -156 -60 -125
l-30 16 0 138 c0 76 3 140 6 144 4 3 24 -3 45 -14 l39 -19 0 -140z m450 -95
l70 -35 0 -140 c0 -77 -4 -140 -9 -140 -5 0 -39 13 -75 30 l-66 29 0 146 c0
80 2 145 5 145 3 0 37 -16 75 -35z m-493 -217 c15 -7 31 -17 36 -23 8 -10 8
-265 0 -277 -2 -5 -22 1 -44 12 l-39 20 0 140 c0 82 4 140 10 140 5 0 22 -6
37 -12z m487 -254 l76 -36 0 -139 c0 -90 -4 -139 -10 -139 -6 0 -40 12 -75 28
l-64 27 -3 148 c-2 81 -2 147 -2 147 1 0 36 -16 78 -36z m-466 -231 c22 -13
23 -18 21 -148 0 -74 -4 -137 -7 -139 -4 -2 -23 3 -42 13 l-35 16 -3 143 -3
144 23 -7 c13 -4 33 -14 46 -22z m542 -420 c0 -79 -2 -143 -4 -143 -2 0 -37
15 -77 34 l-74 33 3 145 3 146 75 -36 74 -36 0 -143z m-528 -67 c11 -16 8
-276 -3 -276 -4 0 -24 8 -44 17 l-35 17 0 136 c0 75 3 139 6 143 8 7 66 -21
76 -37z m458 -231 l70 -35 0 -140 c0 -106 -3 -140 -12 -139 -20 0 -141 63
-139 72 0 4 1 68 1 142 0 74 2 135 5 135 3 0 37 -16 75 -35z m-485 -222 l36
-17 -2 -138 c-1 -151 -2 -153 -59 -123 l-30 16 0 139 c0 83 4 140 10 140 5 0
25 -8 45 -17z m553 -421 c2 -92 -1 -142 -8 -142 -5 0 -40 14 -77 30 l-68 30 3
145 3 144 72 -33 72 -32 3 -142z"/>
<path d="M3745 2632 c-221 -133 -230 -139 -233 -171 l-3 -34 33 20 c18 11 116
70 217 131 101 62 185 112 187 112 2 0 4 -470 4 -1044 l0 -1044 63 -11 c35 -6
69 -11 75 -11 9 0 12 244 12 1000 0 550 2 1000 4 1000 2 0 20 -7 40 -15 l36
-15 0 -994 0 -993 88 -17 c48 -10 97 -20 110 -23 l22 -5 0 1013 0 1014 -48 25
c-26 14 -118 65 -205 113 -87 48 -161 87 -165 87 -4 0 -110 -62 -237 -138z"/>
<path d="M1548 2318 l-198 -110 0 -830 0 -830 23 5 c12 3 43 9 70 12 l47 7 0
805 0 804 35 15 c19 7 37 14 40 14 3 0 5 -365 5 -811 l0 -811 33 5 c17 3 51 9
75 12 l42 7 -2 869 c-2 574 0 869 7 869 6 0 24 -8 40 -18 42 -26 461 -242 469
-242 3 0 6 13 6 29 0 27 -15 37 -240 170 -133 77 -244 141 -248 140 -4 0 -96
-50 -204 -111z"/>
<path d="M3510 1501 l0 -847 178 -21 c97 -11 180 -19 185 -16 9 6 9 1513 -1
1513 -4 0 -87 49 -185 109 l-177 109 0 -847z"/>
<path d="M2015 1896 l-220 -113 -3 -582 -2 -583 42 6 c81 12 330 36 369 36
l39 0 0 675 c0 371 -1 675 -2 675 -2 0 -102 -51 -223 -114z"/>
<path d="M2515 584 c-535 -26 -894 -72 -1343 -169 -109 -23 -369 -100 -511
-151 -128 -46 -438 -190 -429 -199 3 -3 41 6 84 19 467 146 1174 256 1894 296
239 13 941 13 1180 0 728 -40 1470 -157 1908 -301 35 -12 66 -18 69 -15 10 10
-295 152 -429 200 -438 157 -938 255 -1538 301 -179 14 -743 26 -885 19z"/>
</g>
</svg>
