<?xml version="1.0" encoding="UTF-8"?>
<!DOCTYPE svg PUBLIC "-//W3C//DTD SVG 1.1//EN" "http://www.w3.org/Graphics/SVG/1.1/DTD/svg11.dtd">
<!-- Creator: CorelDRAW 2019 (64-Bit) -->
<svg xmlns="http://www.w3.org/2000/svg" xml:space="preserve" width="400.938mm" height="255.833mm" version="1.1" style="shape-rendering:geometricPrecision; text-rendering:geometricPrecision; image-rendering:optimizeQuality; fill-rule:evenodd; clip-rule:evenodd"
viewBox="0 0 42848696 27341116"
 xmlns:xlink="http://www.w3.org/1999/xlink"
 xmlns:xodm="http://www.corel.com/coreldraw/odm/2003">
 <defs>
  <style type="text/css">
   <![CDATA[
    .fil0 {fill:#00245D}
   ]]>
  </style>
 </defs>
 <g id="Слой_x0020_1">
  <metadata id="CorelCorpID_0Corel-Layer"/>
  <path class="fil0" d="M16770699 8419959l-6741155 -1176 4275 -8411987 -5091879 -6797 -4692 24056041 5093151 -1421 4339 -7824538 6729186 310 6947 7818874 4947742 2159 -2373 -24044531c-424791,0 -4789669,-3431 -4947261,-3431 -32,193062 -1176,1433600 -1176,1653262 0,2249346 5782,4502325 2896,6763235zm7267847 15634382l3687145 -1026c15592,-268257 -1090,-9220840 -1090,-9724651 0,-3230753 28599,-6474309 -973,-9703437l9470234 -5857 15122 -3692649c-427965,-353 -10321804,-256 -11527479,-256 -361758,0 -1367318,43 -1645642,32l2682 23127845zm-24038546 3283205l42848482 3569 214 -1848751 -42844389 385 -4307 1844796zm29544475 -3286091c297657,-130564 1121141,-505852 1432509,-653377 240460,-113924 470083,-219342 697002,-321094 239102,-107202 506515,-255625 725162,-329515l4307 -15273179c-378110,-161450 -2643005,-1169660 -2855027,-1265833l-3954 17842999zm-1055565 4628l747178 -4873 19664 -18174214 7204964 -652 395 18180658 739088 2479 8079 -18898521 -8711642 -4756 -7727 18899879zm-6011536 -2768l766810 406 3174 -23579321 13966297 267 -6765 -467667 -14725412 -64 -4104 24046380zm-14905223 -7029055l867215 -834 1368 -1005432 -866585 321 -1998 1005945zm11793887 -7227675c-1015,210066 -577,817862 385,1008926l860258 1464 75 -1012058 -860718 1667zm-6968 12942558l107 226203 203 202745 867034 1421 1689 -1009258 -691701 -1731 -177160 -470 -171 581090zm-12966390 -13140505l877464 -289 331 -1007804c-592119,973 -790386,-930 -877828,21 -1250,11 64,319031 -11,341143 2704,210076 2918,460347 43,666928zm-353 1207140l877518 385 -118 -1007997c-532485,374 -720642,-192 -876235,-395 -192,0 716,32 545,32 -139,0 -1411,-64 -1411,21 21,427 -32,951 -32,2704 53,54974 43,882648 -267,1005250zm1197 12359181l878704 1432c-1699,-166815 -3195,-848075 -4264,-1007793l-868541 -663 -5899 1007024zm-203 -1205302l876973 438c-737,-162369 -1411,-841630 -1582,-1005229l-874247 -1988 -1144 1006778zm11823149 -391479l-235 392826 831595 1229 481 -241037 -203 -603233 -1304 -164816 -831243 524 908 614508zm1069 1597476l830847 3911 -534 -1009589 -835015 -1539 4702 1007216zm-866 -12360325l831221 748 1806 -1007248 -830249 -1763 -2779 1008264zm1151257 6213661l861220 4147 577 -1007537 -861882 2960 85 1000430zm-1150723 -7419871l832450 556 -898 -1006789 -831756 -1518 203 1007751zm-11825681 6218951l878875 -641 -235 -1005367 -876374 -887 -2266 1006896zm1180604 7349817l867963 -1539 2308 -1005592 -866328 -2490 -3944 1009621zm-1179471 -6148438l879025 4392 -3537 -1006084 -875904 1977 417 999714zm11823042 4179l833690 -1037 -3131 -1003401 -831157 -1795 598 1006233zm-577 -1207428l830527 780 2779 -1003294 -831307 -1208 -1998 1003722zm-10644821 -5010230l873649 1250 -3986 -1010732 -867141 1817 -2522 1007665zm-1177045 -6258771l876214 -278 128 -992094 -877379 -53 1037 992425zm1176970 -5696l870368 6305 -43 -993056 -869021 1624 -1304 985126zm11797435 6423l857960 663 -2105 -994007 -856678 -182 823 993526zm-1149804 -1202170l831959 -663 -1902 -997406 -834075 0 4018 998068zm-11825393 -663925l470 659212 876994 5023 449 -995097 -877454 -716 -460 331578zm11825457 1866748l830291 -588 -235 -993580 -831146 75 1090 994093zm-10646232 17413132l870988 -427 -1817 -1006287 -868947 192 -224 1006522zm11794112 -12362665l861423 96 -737 -1008873 -859478 1453 -1208 1007323zm1325 6215478l858110 2565 3046 -1002578 -862620 -2148 1464 1002161zm-11796752 898l869396 823 139 -1002546 -869032 -866 -502 1002589zm11797243 6145403l857159 1240 2234 -1009161 -855075 -1827 -4318 1009749zm-11795181 -18615805l868818 1079 342 -995749 -871576 449 2415 994221zm11796377 -1806l854968 256 4937 -994403 -857608 -1347 -2298 995493zm-11797040 6255501l869021 -1347 -246 -1007355 -867792 598 -983 1008103zm23984277 5884189l461373 -82120 17505 98364 -461373 82120 -17505 -98364z"/>
 </g>
</svg>
