<?xml version="1.0" encoding="UTF-8"?>
<!DOCTYPE svg PUBLIC "-//W3C//DTD SVG 1.1//EN" "http://www.w3.org/Graphics/SVG/1.1/DTD/svg11.dtd">
<!-- Creator: CorelDRAW 2021 (64-Bit) -->
<svg xmlns="http://www.w3.org/2000/svg" xml:space="preserve" width="158mm" height="158mm" version="1.1" style="shape-rendering:geometricPrecision; text-rendering:geometricPrecision; image-rendering:optimizeQuality; fill-rule:evenodd; clip-rule:evenodd"
viewBox="0 0 15785.75 15785.75"
 xmlns:xlink="http://www.w3.org/1999/xlink"
 xmlns:xodm="http://www.corel.com/coreldraw/odm/2003">
 <defs>
  <style type="text/css">
   <![CDATA[
    .fil0 {fill:#EBECEC}
    .fil1 {fill:#898989;fill-rule:nonzero}
   ]]>
  </style>
 </defs>
 <g id="Слой_x0020_1">
  <metadata id="CorelCorpID_0Corel-Layer"/>
  <rect class="fil0" width="15785.75" height="15785.75"/>
  <path class="fil1" d="M1231.39 14554.41c-49.97,-55.33 -48.6,-56.84 860.07,-965.94l910.23 -910.34 105.73 105.73 -912.99 912.95 -912.79 912.98 -50.26 -55.38zm12363.08 -854.28l-906.2 -906.5 55.33 -50.11c55.34,-50.11 56.86,-48.71 959.22,853.63l903.6 903.6 -52.87 53 -52.87 52.87 -906.21 -906.49zm-7604.88 -5567.91c-29.04,-12.09 -82.62,-54.1 -118.95,-93.19l-66.09 -71.06 -7.43 -1140.38c-7.96,-1225.22 -6.06,-1246.02 127.35,-1341.01 64.42,-45.85 117.71,-52.19 439.33,-52.58 201.3,-0.14 382.88,-11.18 403.68,-24.25 20.65,-13.08 104.79,-134.79 186.84,-270.56 223.04,-368.95 211.62,-364.69 965.95,-365.25 772.8,-0.56 772.66,-0.56 996.26,367.76 83.14,136.97 166.33,258.67 185.04,270.52 18.57,11.7 191.92,21.64 385.38,21.78 392.64,0.53 478.01,25.45 547.55,159.7 35.39,68.56 39.93,232.94 33.45,1228.36l-7.44 1149.08 -172.77 172.77 -1922.7 5.26c-1057.38,2.89 -1946.38,-4.83 -1975.43,-16.95zm3887.1 -172.1l64.85 -64.81 0 -1094.71c0,-1359.15 48.33,-1234.03 -476.52,-1234.03 -203.91,0 -394.44,-12.52 -428.84,-28.2 -34.86,-15.86 -125.87,-134.53 -207.63,-270.83 -221.13,-368.71 -204.19,-361.83 -896.02,-361.83 -691.85,0 -674.89,-6.87 -896.02,361.83 -81.78,136.3 -172.78,254.97 -207.6,270.83 -34.44,15.69 -224.98,28.2 -428.87,28.2 -524.85,0 -476.53,-125.13 -476.53,1234.03l0 1094.71 64.86 64.81 64.99 64.85 3758.35 0 64.99 -64.85zm-2290.7 -260.19c-269.57,-113.6 -431.48,-266.99 -548.92,-519.63 -57.14,-122.8 -68.31,-185.14 -68.84,-384.53 -0.42,-212.01 8.39,-256.63 81.21,-409.73 362.93,-762.34 1403.25,-762.34 1766.18,0 72.01,151.44 81.64,198.54 80.54,396.51 -2.22,396.66 -176.79,690.05 -519.21,873.18 -147.71,79.17 -194.09,90.3 -404.76,98.02 -203.09,7.43 -259.66,-0.42 -386.18,-53.82zm696.38 -149.55c358.92,-170.56 554.85,-576.45 459.02,-950.94 -101.34,-395.14 -406.84,-635.13 -808.86,-635.13 -402.02,0 -707.53,239.98 -808.86,635.13 -106.16,414.29 141.26,857.89 553.89,992.81 158.04,51.77 450.33,31.54 604.81,-41.87zm250.28 -705.17c-10.18,-10.18 -18.57,-42.01 -18.57,-70.49 0,-127.52 -70.92,-275.91 -187.65,-393.25 -104.93,-105.31 -147.19,-128.43 -285.56,-155.57 -179.79,-35.39 -213.94,-62.77 -153.49,-123.22 100.34,-100.35 483.64,62.24 622.3,263.81 92.24,134.08 144.69,293.91 132.31,403.11 -8.52,74.9 -68.55,116.35 -109.33,75.6zm430.81 -697.09c-78.74,-78.6 -70.49,-220.14 16.81,-288.84 79.41,-62.49 113.18,-66.65 203.76,-25.49 185.32,84.55 124.32,367.2 -79.3,367.2 -53.15,0 -109.48,-21.04 -141.27,-52.87zm185.04 -132.17c0,-35.25 -17.62,-52.87 -52.87,-52.87 -50.92,0 -71.59,51.78 -35.24,88.12 36.34,36.48 88.11,15.72 88.11,-35.25zm-7058 -3819.78l-911.19 -911.29 105.74 -105.73 911.18 911.29 911.18 911.46 -105.73 105.73 -911.18 -911.46zm10644.84 838.32c-40.21,-44.58 10.33,-100.49 863.1,-952.87l905.78 -905.65 50.12 55.34c49.97,55.37 48.47,57.14 -847.14,952.88 -493.44,493.72 -904.41,897.53 -913.09,897.53 -8.81,0 -35.1,-21.18 -58.79,-47.23zm-8486.91 6249.42l0 -103.8 101.51 0 0 103.8c103.99,5.52 186.11,36.88 246.18,94.11 60.27,57.22 90.3,128.12 90.3,212.91 0,83.08 -29.08,153.6 -87.44,211.77 -58.36,57.99 -141.24,90.11 -249.04,96l0 104.94 -101.51 0 0 -104.94c-96.57,-3.81 -176.99,-33.27 -241.24,-88.59 -64.25,-55.13 -96.37,-128.31 -96.37,-219.18 0,-91.06 32.12,-164.05 96.18,-218.8 64.06,-54.75 144.48,-84.02 241.43,-88.21zm101.51 92.39l0 430.01c69.77,-3.43 124.52,-23.77 164.63,-61.02 40.11,-37.26 60.07,-88.59 60.07,-153.98 0,-64.25 -19.57,-115.01 -58.93,-152.65 -39.35,-37.45 -94.48,-58.17 -165.77,-62.35zm-101.51 1.15c-67.3,3.04 -121.67,22.81 -163.3,59.69 -41.63,36.88 -62.54,88.21 -62.54,154.17 0,65.2 20.53,116.34 61.59,153.6 41.06,37.26 95.81,57.22 164.25,60.27l0 -427.72zm521.63 330.2c0,-109.31 30.42,-190.29 91.44,-242.95 50.76,-43.72 112.93,-65.58 186.11,-65.58 81.18,0 147.71,26.61 199.42,79.84 51.51,53.04 77.37,126.61 77.37,220.33 0,76.03 -11.41,135.73 -34.22,179.26 -22.82,43.53 -56.08,77.37 -99.81,101.52 -43.53,24.14 -91.25,36.12 -142.76,36.12 -82.89,0 -149.79,-26.43 -200.94,-79.47 -51.13,-53.03 -76.61,-129.45 -76.61,-229.06zm102.66 0.19c0,75.66 16.54,132.31 49.62,169.76 33.27,37.64 74.9,56.46 125.28,56.46 49.81,0 91.25,-18.82 124.52,-56.65 33.08,-37.83 49.62,-95.43 49.62,-172.8 0,-72.99 -16.72,-128.31 -49.99,-165.76 -33.27,-37.65 -74.71,-56.46 -124.14,-56.46 -50.37,0 -92.01,18.62 -125.28,56.08 -33.08,37.45 -49.62,93.91 -49.62,169.38zm491.79 -296.18l479.06 0 0 83.26 -189.34 0 0 508.71 -100.38 0 0 -508.71 -189.34 0 0 -83.26zm524.49 295.99c0,-109.31 30.42,-190.29 91.44,-242.95 50.76,-43.72 112.93,-65.58 186.11,-65.58 81.18,0 147.71,26.61 199.42,79.84 51.51,53.04 77.37,126.61 77.37,220.33 0,76.03 -11.41,135.73 -34.22,179.26 -22.82,43.53 -56.08,77.37 -99.81,101.52 -43.53,24.14 -91.25,36.12 -142.76,36.12 -82.89,0 -149.79,-26.43 -200.94,-79.47 -51.13,-53.03 -76.61,-129.45 -76.61,-229.06zm102.66 0.19c0,75.66 16.54,132.31 49.62,169.76 33.27,37.64 74.9,56.46 125.28,56.46 49.81,0 91.25,-18.82 124.52,-56.65 33.08,-37.83 49.62,-95.43 49.62,-172.8 0,-72.99 -16.72,-128.31 -49.99,-165.76 -33.27,-37.65 -74.71,-56.46 -124.14,-56.46 -50.37,0 -92.01,18.62 -125.28,56.08 -33.08,37.45 -49.62,93.91 -49.62,169.38zm886.25 -296.18l230.97 0c56.65,0 98.85,4.76 126.61,14.26 27.57,9.51 51.32,26.81 71.1,52.09 19.96,25.48 29.84,55.7 29.84,91.06 0,28.32 -5.89,53.03 -17.48,73.94 -11.79,21.1 -29.27,38.78 -52.85,52.85 27.75,9.31 50.75,26.62 69.2,52.08 18.25,25.29 27.38,55.51 27.38,90.3 -3.61,56.08 -23.76,97.71 -60.08,124.71 -36.31,27.19 -89.15,40.68 -158.35,40.68l-266.33 0 0 -591.98zm100.37 249.79l106.45 0c42.39,0 71.68,-2.28 87.45,-6.65 15.97,-4.57 30.22,-13.5 42.77,-27.19 12.55,-13.5 18.82,-29.84 18.82,-48.86 0,-31.36 -11.03,-53.03 -32.89,-65.39 -22.05,-12.36 -59.7,-18.44 -112.92,-18.44l-109.69 0 0 166.53zm0 260.06l131.74 0c56.65,0 95.62,-6.65 116.72,-19.77 21.1,-13.3 32.12,-35.93 33.26,-68.43 0,-18.82 -6.08,-36.51 -18.24,-52.66 -12.36,-16.16 -28.32,-26.43 -47.91,-30.6 -19.58,-4.38 -51.13,-6.46 -94.48,-6.46l-121.09 0 0 177.93zm505.67 309.1l0 -818.95 91.25 0 0 77.76c21.48,-30.04 45.81,-52.66 72.99,-67.68 27,-15.02 59.89,-22.62 98.47,-22.62 50.57,0 95.05,12.92 133.64,38.96 38.6,25.86 67.68,62.54 87.45,109.69 19.58,47.34 29.46,99.04 29.46,155.5 0,60.27 -10.83,114.63 -32.51,163.1 -21.67,48.29 -53.22,85.36 -94.66,111.21 -41.25,25.67 -84.78,38.6 -130.41,38.6 -33.45,0 -63.49,-7.03 -89.92,-21.1 -26.61,-14.07 -48.28,-31.75 -65.39,-53.23l0 288.76 -100.37 0zm91.25 -519.35c0,75.85 15.4,131.93 46,168.24 30.8,36.31 68.06,54.56 111.78,54.56 44.49,0 82.51,-18.82 114.07,-56.46 31.74,-37.64 47.52,-95.81 47.52,-174.7 0,-75.28 -15.4,-131.55 -46.38,-169 -30.99,-37.45 -67.87,-56.08 -110.83,-56.08 -42.58,0 -80.22,19.96 -112.92,59.69 -32.89,39.92 -49.24,97.71 -49.24,173.75zm946.89 100.76l103.8 13.69c-16.16,60.26 -46.38,107.21 -90.49,140.48 -44.1,33.26 -100.37,49.99 -169,49.99 -86.3,0 -154.74,-26.62 -205.3,-79.85 -50.56,-53.03 -75.85,-127.74 -75.85,-223.75 0,-99.23 25.48,-176.41 76.61,-231.16 51.13,-54.93 117.48,-82.31 199.03,-82.31 78.9,0 143.34,26.8 193.34,80.6 49.99,53.8 75.09,129.46 75.09,226.99 0,5.88 -0.19,14.83 -0.57,26.61l-440.84 0c3.8,64.83 22.05,114.64 55.13,149.05 32.88,34.41 74.13,51.7 123.37,51.7 36.69,0 68.06,-9.69 93.92,-29.08 26.04,-19.39 46.57,-50.37 61.77,-92.96zm-328.48 -160.82l329.63 0c-4.38,-49.81 -17.11,-87.07 -37.84,-111.97 -31.74,-38.6 -73.18,-57.99 -123.94,-57.99 -46.01,0 -84.6,15.41 -115.97,46.2 -31.18,30.79 -48.48,72.04 -51.89,123.76zm562.5 -239.53l154.36 0 156.46 473.73 173.17 -473.73 143.34 0 0 591.98 -100.37 0 0 -476.58 -174.32 476.58 -89.73 0 -164.82 -499.39 0 499.39 -98.09 0 0 -591.98zm1184.51 400.36l103.8 13.69c-16.16,60.26 -46.38,107.21 -90.49,140.48 -44.1,33.26 -100.37,49.99 -169,49.99 -86.3,0 -154.74,-26.62 -205.3,-79.85 -50.56,-53.03 -75.85,-127.74 -75.85,-223.75 0,-99.23 25.48,-176.41 76.61,-231.16 51.13,-54.93 117.48,-82.31 199.03,-82.31 78.9,0 143.34,26.8 193.34,80.6 49.99,53.8 75.09,129.46 75.09,226.99 0,5.88 -0.19,14.83 -0.57,26.61l-440.84 0c3.8,64.83 22.05,114.64 55.13,149.05 32.88,34.41 74.13,51.7 123.37,51.7 36.69,0 68.06,-9.69 93.92,-29.08 26.04,-19.39 46.57,-50.37 61.77,-92.96zm-328.48 -160.82l329.63 0c-4.38,-49.81 -17.11,-87.07 -37.84,-111.97 -31.74,-38.6 -73.18,-57.99 -123.94,-57.99 -46.01,0 -84.6,15.41 -115.97,46.2 -31.18,30.79 -48.48,72.04 -51.89,123.76zm559.09 -239.53l100.37 0 0 246.38 278.31 0 0 -246.38 100.37 0 0 591.98 -100.37 0 0 -262.33 -278.31 0 0 262.33 -100.37 0 0 -591.98zm629.8 0l100.37 0 0 246.38 278.31 0 0 -246.38 100.37 0 0 591.98 -100.37 0 0 -262.33 -278.31 0 0 262.33 -100.37 0 0 -591.98zm592.16 295.99c0,-109.31 30.42,-190.29 91.44,-242.95 50.76,-43.72 112.93,-65.58 186.11,-65.58 81.18,0 147.71,26.61 199.42,79.84 51.51,53.04 77.37,126.61 77.37,220.33 0,76.03 -11.41,135.73 -34.22,179.26 -22.82,43.53 -56.08,77.37 -99.81,101.52 -43.53,24.14 -91.25,36.12 -142.76,36.12 -82.89,0 -149.79,-26.43 -200.94,-79.47 -51.13,-53.03 -76.61,-129.45 -76.61,-229.06zm102.66 0.19c0,75.66 16.54,132.31 49.62,169.76 33.27,37.64 74.9,56.46 125.28,56.46 49.81,0 91.25,-18.82 124.52,-56.65 33.08,-37.83 49.62,-95.43 49.62,-172.8 0,-72.99 -16.72,-128.31 -49.99,-165.76 -33.27,-37.65 -74.71,-56.46 -124.14,-56.46 -50.37,0 -92.01,18.62 -125.28,56.08 -33.08,37.45 -49.62,93.91 -49.62,169.38zm-6590.3 1274.06c0,-109.31 30.42,-190.29 91.44,-242.95 50.76,-43.72 112.93,-65.58 186.11,-65.58 81.18,0 147.71,26.61 199.42,79.84 51.51,53.04 77.37,126.61 77.37,220.33 0,76.03 -11.41,135.73 -34.22,179.26 -22.82,43.53 -56.08,77.37 -99.81,101.52 -43.53,24.14 -91.25,36.12 -142.76,36.12 -82.89,0 -149.79,-26.43 -200.94,-79.47 -51.13,-53.03 -76.61,-129.45 -76.61,-229.06zm102.66 0.19c0,75.66 16.54,132.31 49.62,169.76 33.27,37.64 74.9,56.46 125.28,56.46 49.81,0 91.25,-18.82 124.52,-56.65 33.08,-37.83 49.62,-95.43 49.62,-172.8 0,-72.99 -16.72,-128.31 -49.99,-165.76 -33.27,-37.65 -74.71,-56.46 -124.14,-56.46 -50.37,0 -92.01,18.62 -125.28,56.08 -33.08,37.45 -49.62,93.91 -49.62,169.38zm491.79 -296.18l479.06 0 0 83.26 -189.34 0 0 508.71 -100.38 0 0 -508.71 -189.34 0 0 -83.26zm948.79 375.26l98.09 13.69c-10.84,67.49 -38.21,120.14 -82.51,158.36 -44.29,38.21 -98.85,57.22 -163.29,57.22 -80.8,0 -145.81,-26.43 -194.85,-79.28 -49.24,-52.84 -73.75,-128.5 -73.75,-226.98 0,-63.87 10.64,-119.57 31.74,-167.48 21.1,-47.72 53.23,-83.64 96.57,-107.4 43.15,-23.96 90.11,-35.93 141.05,-35.93 64.06,0 116.72,16.16 157.41,48.67 40.86,32.5 67.1,78.7 78.51,138.39l-96.95 14.83c-9.31,-39.72 -25.67,-69.57 -49.43,-89.72 -23.58,-19.96 -52.09,-30.04 -85.54,-30.04 -50.57,0 -91.64,18.06 -123.38,54.18 -31.56,36.31 -47.34,93.34 -47.34,171.67 0,79.46 15.21,137.06 45.63,172.98 30.6,35.93 70.34,53.99 119.19,53.99 39.53,0 72.42,-11.98 98.66,-36.12 26.43,-23.96 43.15,-61.02 50.18,-111.02zm179.07 444.27l-11.41 -92.78c22.06,5.89 41.06,8.94 57.42,8.94 22.43,0 40.29,-3.81 53.6,-11.22 13.5,-7.41 24.53,-17.87 33.08,-31.18 6.27,-10.07 16.54,-34.98 30.6,-74.89 1.91,-5.52 4.76,-13.69 8.94,-24.53l-224.7 -593.87 107.21 0 123.57 341.8c16.16,43.15 30.41,88.78 43.15,136.69 11.59,-45.06 25.28,-89.54 41.25,-133.26l126.23 -345.23 100.18 0 -223.75 602.24c-24.14,64.83 -42.96,109.31 -56.46,133.84 -17.87,32.88 -38.41,57.03 -61.4,72.42 -23.19,15.4 -50.75,23 -82.7,23 -19.38,0 -41.05,-3.99 -64.82,-11.97zm522.39 -819.53l479.06 0 0 83.26 -189.34 0 0 508.71 -100.38 0 0 -508.71 -189.34 0 0 -83.26zm948.79 375.26l98.09 13.69c-10.84,67.49 -38.21,120.14 -82.51,158.36 -44.29,38.21 -98.85,57.22 -163.29,57.22 -80.8,0 -145.81,-26.43 -194.85,-79.28 -49.24,-52.84 -73.75,-128.5 -73.75,-226.98 0,-63.87 10.64,-119.57 31.74,-167.48 21.1,-47.72 53.23,-83.64 96.57,-107.4 43.15,-23.96 90.11,-35.93 141.05,-35.93 64.06,0 116.72,16.16 157.41,48.67 40.86,32.5 67.1,78.7 78.51,138.39l-96.95 14.83c-9.31,-39.72 -25.67,-69.57 -49.43,-89.72 -23.58,-19.96 -52.09,-30.04 -85.54,-30.04 -50.57,0 -91.64,18.06 -123.38,54.18 -31.56,36.31 -47.34,93.34 -47.34,171.67 0,79.46 15.21,137.06 45.63,172.98 30.6,35.93 70.34,53.99 119.19,53.99 39.53,0 72.42,-11.98 98.66,-36.12 26.43,-23.96 43.15,-61.02 50.18,-111.02zm131.16 -375.26l479.06 0 0 83.26 -189.34 0 0 508.71 -100.38 0 0 -508.71 -189.34 0 0 -83.26zm574.87 0l230.97 0c56.65,0 98.85,4.76 126.61,14.26 27.57,9.51 51.32,26.81 71.1,52.09 19.96,25.48 29.84,55.7 29.84,91.06 0,28.32 -5.89,53.03 -17.48,73.94 -11.79,21.1 -29.27,38.78 -52.85,52.85 27.75,9.31 50.75,26.62 69.2,52.08 18.25,25.29 27.38,55.51 27.38,90.3 -3.61,56.08 -23.76,97.71 -60.08,124.71 -36.31,27.19 -89.15,40.68 -158.35,40.68l-266.33 0 0 -591.98zm100.37 249.79l106.45 0c42.39,0 71.68,-2.28 87.45,-6.65 15.97,-4.57 30.22,-13.5 42.77,-27.19 12.55,-13.5 18.82,-29.84 18.82,-48.86 0,-31.36 -11.03,-53.03 -32.89,-65.39 -22.05,-12.36 -59.7,-18.44 -112.92,-18.44l-109.69 0 0 166.53zm0 260.06l131.74 0c56.65,0 95.62,-6.65 116.72,-19.77 21.1,-13.3 32.12,-35.93 33.26,-68.43 0,-18.82 -6.08,-36.51 -18.24,-52.66 -12.36,-16.16 -28.32,-26.43 -47.91,-30.6 -19.58,-4.38 -51.13,-6.46 -94.48,-6.46l-121.09 0 0 177.93zm476.01 309.68l-11.41 -92.78c22.06,5.89 41.06,8.94 57.42,8.94 22.43,0 40.29,-3.81 53.6,-11.22 13.5,-7.41 24.53,-17.87 33.08,-31.18 6.27,-10.07 16.54,-34.98 30.6,-74.89 1.91,-5.52 4.76,-13.69 8.94,-24.53l-224.7 -593.87 107.21 0 123.57 341.8c16.16,43.15 30.41,88.78 43.15,136.69 11.59,-45.06 25.28,-89.54 41.25,-133.26l126.23 -345.23 100.18 0 -223.75 602.24c-24.14,64.83 -42.96,109.31 -56.46,133.84 -17.87,32.88 -38.41,57.03 -61.4,72.42 -23.19,15.4 -50.75,23 -82.7,23 -19.38,0 -41.05,-3.99 -64.82,-11.97zm965.89 -419.17l103.8 13.69c-16.16,60.26 -46.38,107.21 -90.49,140.48 -44.1,33.26 -100.37,49.99 -169,49.99 -86.3,0 -154.74,-26.62 -205.3,-79.85 -50.56,-53.03 -75.85,-127.74 -75.85,-223.75 0,-99.23 25.48,-176.41 76.61,-231.16 51.13,-54.93 117.48,-82.31 199.03,-82.31 78.9,0 143.34,26.8 193.34,80.6 49.99,53.8 75.09,129.46 75.09,226.99 0,5.88 -0.19,14.83 -0.57,26.61l-440.84 0c3.8,64.83 22.05,114.64 55.13,149.05 32.88,34.41 74.13,51.7 123.37,51.7 36.69,0 68.06,-9.69 93.92,-29.08 26.04,-19.39 46.57,-50.37 61.77,-92.96zm-328.48 -160.82l329.63 0c-4.38,-49.81 -17.11,-87.07 -37.84,-111.97 -31.74,-38.6 -73.18,-57.99 -123.94,-57.99 -46.01,0 -84.6,15.41 -115.97,46.2 -31.18,30.79 -48.48,72.04 -51.89,123.76zm468.79 -239.53l479.06 0 0 83.26 -189.34 0 0 508.71 -100.38 0 0 -508.71 -189.34 0 0 -83.26z"/>
 </g>
</svg>
