<svg width="100" height="100" viewBox="0 0 100 100" fill="none" xmlns="http://www.w3.org/2000/svg">
<path d="M68.2919 33.2703L63.6044 28.5828C63.3113 28.2899 62.914 28.1253 62.4997 28.1253C62.0853 28.1253 61.688 28.2899 61.395 28.5828L43.7497 46.2281L38.6044 41.0828C38.3113 40.7899 37.914 40.6253 37.4997 40.6253C37.0853 40.6253 36.688 40.7899 36.395 41.0828L31.7075 45.7703C31.4146 46.0633 31.25 46.4607 31.25 46.875C31.25 47.2893 31.4146 47.6867 31.7075 47.9797L42.645 58.9172C42.938 59.2101 43.3353 59.3747 43.7497 59.3747C44.164 59.3747 44.5613 59.2101 44.8544 58.9172L68.2919 35.4797C68.5848 35.1867 68.7493 34.7893 68.7493 34.375C68.7493 33.9607 68.5848 33.5633 68.2919 33.2703ZM43.7497 55.6031L35.0215 46.875L37.4997 44.3969L42.645 49.5422C42.938 49.8351 43.3353 49.9997 43.7497 49.9997C44.164 49.9997 44.5613 49.8351 44.8544 49.5422L62.4997 31.8969L64.9778 34.375L43.7497 55.6031Z" fill="#1E293C"/>
<path d="M20.5953 66.1109C18.352 60.5161 17.1955 54.545 17.1875 48.5172V16.5297C28.8291 16.2413 40.1725 12.7881 50 6.54061C59.8275 12.7881 71.1709 16.2413 82.8125 16.5297V48.5172C82.7986 57.0327 80.5022 65.3888 76.1625 72.7156L79.4312 73.2187C83.6768 65.6768 85.917 57.172 85.9375 48.5172V14.9859C85.9375 14.5715 85.7729 14.1741 85.4799 13.8811C85.1868 13.588 84.7894 13.4234 84.375 13.4234C72.7548 13.4198 61.3775 10.0962 51.5828 3.84374L50.8391 3.37499C50.5883 3.21537 50.2972 3.13058 50 3.13058C49.7028 3.13058 49.4117 3.21537 49.1609 3.37499L48.4172 3.84374C38.6227 10.0967 27.2453 13.4204 15.625 13.4234C15.2106 13.4234 14.8132 13.588 14.5201 13.8811C14.2271 14.1741 14.0625 14.5715 14.0625 14.9859V48.5172C14.0733 55.087 15.3668 61.5915 17.8703 67.6656L20.5953 66.1109Z" fill="#1E293C"/>
<path d="M76.5625 48.5172V23.75C76.5623 23.3709 76.4243 23.0048 76.1742 22.7199C75.9241 22.4351 75.579 22.2508 75.2031 22.2015C66.6294 21.0761 58.3378 18.3744 50.7469 14.2328C50.5177 14.1081 50.2609 14.0427 50 14.0427C49.7391 14.0427 49.4823 14.1081 49.2531 14.2328C41.6619 18.3751 33.3697 21.0768 24.7953 22.2015C24.4197 22.2512 24.075 22.4356 23.8252 22.7204C23.5754 23.0052 23.4376 23.3711 23.4375 23.75V48.5172C23.4436 53.4642 24.3391 58.3699 26.0812 63C27.0317 62.5667 28.0231 62.2296 29.0406 61.9937C27.407 57.6882 26.5674 53.1222 26.5625 48.5172V25.1031C34.7561 23.8715 42.6812 21.2578 50 17.3734C57.3188 21.2578 65.2439 23.8715 73.4375 25.1031V48.5172C73.4198 55.9673 71.2299 63.2505 67.1359 69.475L69.875 70.9687C74.2189 64.2846 76.541 56.4887 76.5625 48.5172Z" fill="#1E293C"/>
<path d="M96.4985 84.7906L95.2578 80.7812C95.2331 80.7002 95.2018 80.6212 95.1641 80.5453C94.6967 79.8286 94.063 79.2354 93.3171 78.8162C92.5711 78.397 91.735 78.1641 90.8797 78.1375L70.9953 75.0828C70.8979 75.0677 70.8039 75.036 70.7172 74.989L56.1672 67.0484C51.2788 64.9372 45.9885 63.9182 40.6657 64.0625C30.1157 64.0625 27.4078 65.7547 26.2516 66.4781L17.5641 71.4516C17.08 71.7292 16.5316 71.8752 15.9735 71.875H10.9938C7.7969 71.875 5.52503 74.0406 4.79222 77.7469L3.21409 84.0625C3.08039 84.7883 3.11196 85.535 3.30645 86.247C3.50094 86.9589 3.85337 87.6179 4.33753 88.175C4.95992 88.9262 5.73732 89.5341 6.6165 89.957C7.49567 90.3799 8.45585 90.6077 9.43128 90.625H14.275C14.6381 92.386 15.5976 93.968 16.9915 95.1038C18.3854 96.2397 20.1285 96.8599 21.9266 96.8599C23.7247 96.8599 25.4678 96.2397 26.8617 95.1038C28.2556 93.968 29.2151 92.386 29.5782 90.625H68.9344C69.2975 92.386 70.2569 93.968 71.6509 95.1038C73.0448 96.2397 74.7879 96.8599 76.586 96.8599C78.3841 96.8599 80.1271 96.2397 81.5211 95.1038C82.915 93.968 83.8744 92.386 84.2375 90.625H92.7532C93.4437 90.6255 94.1233 90.4525 94.7295 90.1218C95.3357 89.7911 95.849 89.3134 96.2224 88.7325C96.5958 88.1516 96.8171 87.4862 96.8662 86.7974C96.9153 86.1086 96.7904 85.4186 96.5032 84.7906H96.4985ZM64.0625 74.9203C56.779 74.8073 49.4978 74.5744 42.2219 74.2219V67.2172C46.4982 67.2499 50.7261 68.1249 54.6641 69.7922L64.0625 74.9203ZM27.9078 69.1281C28.7078 68.6281 30.7688 67.3453 39.1032 67.2015V74.0625C33.1266 73.7266 27.1032 73.2719 21.7719 72.6562L27.9078 69.1281ZM21.925 93.75C20.9979 93.75 20.0917 93.4751 19.3208 92.96C18.5499 92.4449 17.9491 91.7128 17.5943 90.8563C17.2396 89.9998 17.1467 89.0573 17.3276 88.148C17.5085 87.2387 17.9549 86.4035 18.6105 85.7479C19.266 85.0924 20.1013 84.6459 21.0105 84.4651C21.9198 84.2842 22.8623 84.377 23.7189 84.7318C24.5754 85.0866 25.3075 85.6874 25.8225 86.4583C26.3376 87.2291 26.6125 88.1354 26.6125 89.0625C26.6125 90.3057 26.1187 91.498 25.2396 92.377C24.3605 93.2561 23.1682 93.75 21.925 93.75ZM76.586 93.75C75.6589 93.75 74.7526 93.4751 73.9817 92.96C73.2109 92.4449 72.6101 91.7128 72.2553 90.8563C71.9005 89.9998 71.8077 89.0573 71.9885 88.148C72.1694 87.2387 72.6158 86.4035 73.2714 85.7479C73.927 85.0924 74.7622 84.6459 75.6715 84.4651C76.5808 84.2842 77.5233 84.377 78.3798 84.7318C79.2363 85.0866 79.9684 85.6874 80.4835 86.4583C80.9985 87.2291 81.2735 88.1354 81.2735 89.0625C81.2735 90.3057 80.7796 91.498 79.9005 92.377C79.0215 93.2561 77.8292 93.75 76.586 93.75ZM93.5938 87.0312C93.5054 87.1758 93.3811 87.295 93.233 87.3771C93.0848 87.4593 92.9179 87.5016 92.7485 87.5H84.2328C83.8698 85.7389 82.9103 84.157 81.5164 83.0212C80.1224 81.8853 78.3794 81.2651 76.5813 81.2651C74.7832 81.2651 73.0401 81.8853 71.6462 83.0212C70.2523 84.157 69.2928 85.7389 68.9297 87.5H29.5766C29.2135 85.7389 28.2541 84.157 26.8601 83.0212C25.4662 81.8853 23.7231 81.2651 21.925 81.2651C20.1269 81.2651 18.3839 81.8853 16.9899 83.0212C15.596 84.157 14.6366 85.7389 14.2735 87.5H9.42972C8.91729 87.4827 8.41423 87.3578 7.95314 87.1336C7.49204 86.9094 7.08322 86.5908 6.75315 86.1984C6.57299 86.0064 6.43588 85.7782 6.351 85.5289C6.26613 85.2797 6.23543 85.0152 6.26097 84.7531L7.83909 78.4375C8.29534 76.1609 9.35628 75 10.9938 75H15.7672C33.1203 77.7219 63.15 78.0734 70.2985 78.125C70.3703 78.139 90.4 81.2375 90.4 81.2375C91.0923 81.2749 91.76 81.5066 92.3266 81.9062L93.5422 85.8297C93.5671 85.9109 93.599 85.9899 93.6375 86.0656C93.7139 86.2167 93.75 86.385 93.7423 86.5542C93.7347 86.7233 93.6835 86.8876 93.5938 87.0312Z" fill="#1E293C"/>
</svg>
