<svg width="100" height="100" viewBox="0 0 100 100" fill="none" xmlns="http://www.w3.org/2000/svg">
<g clip-path="url(#clip0_486_9448)">
<path d="M98.3333 48.3333H68.3333V1.66667C68.3333 1.22464 68.1577 0.800716 67.8452 0.488155C67.5326 0.175595 67.1087 0 66.6667 0C66.2246 0 65.8007 0.175595 65.4882 0.488155C65.1756 0.800716 65 1.22464 65 1.66667V48.3333H35V1.66667C35 1.22464 34.8244 0.800716 34.5118 0.488155C34.1993 0.175595 33.7754 0 33.3333 0C32.8913 0 32.4674 0.175595 32.1548 0.488155C31.8423 0.800716 31.6667 1.22464 31.6667 1.66667V48.3333H1.66667C1.22464 48.3333 0.800716 48.5089 0.488155 48.8215C0.175595 49.134 0 49.558 0 50C0 50.442 0.175595 50.866 0.488155 51.1785C0.800716 51.4911 1.22464 51.6667 1.66667 51.6667H31.6667V98.3333C31.6667 98.7754 31.8423 99.1993 32.1548 99.5118C32.4674 99.8244 32.8913 100 33.3333 100C33.7754 100 34.1993 99.8244 34.5118 99.5118C34.8244 99.1993 35 98.7754 35 98.3333V51.6667H65V98.3333C65 98.7754 65.1756 99.1993 65.4882 99.5118C65.8007 99.8244 66.2246 100 66.6667 100C67.1087 100 67.5326 99.8244 67.8452 99.5118C68.1577 99.1993 68.3333 98.7754 68.3333 98.3333V51.6667H98.3333C98.7754 51.6667 99.1993 51.4911 99.5118 51.1785C99.8244 50.866 100 50.442 100 50C100 49.558 99.8244 49.134 99.5118 48.8215C99.1993 48.5089 98.7754 48.3333 98.3333 48.3333Z" fill="#1E293C"/>
<path d="M21.6667 45C23.4348 45 25.1305 44.2976 26.3807 43.0474C27.631 41.7971 28.3333 40.1014 28.3333 38.3333V11.6667C28.3333 9.89856 27.631 8.20286 26.3807 6.95262C25.1305 5.70238 23.4348 5 21.6667 5H11.6667C9.89856 5 8.20286 5.70238 6.95262 6.95262C5.70238 8.20286 5 9.89856 5 11.6667V38.3333C5 40.1014 5.70238 41.7971 6.95262 43.0474C8.20286 44.2976 9.89856 45 11.6667 45H21.6667ZM8.33333 11.6667C8.33333 10.7826 8.68452 9.93476 9.30964 9.30964C9.93476 8.68452 10.7826 8.33333 11.6667 8.33333H21.6667C22.5507 8.33333 23.3986 8.68452 24.0237 9.30964C24.6488 9.93476 25 10.7826 25 11.6667V14.6917C22.3172 13.7781 19.5007 13.319 16.6667 13.3333C13.8326 13.319 11.0161 13.7781 8.33333 14.6917V11.6667ZM8.33333 18.2933C10.9755 17.2031 13.8084 16.6501 16.6667 16.6667C19.525 16.65 22.3583 17.2033 25 18.2933V21.6667H8.33333V18.2933ZM8.33333 25H25V33.3333H8.33333V25ZM8.33333 38.3333V36.6667H25V38.3333C25 39.2174 24.6488 40.0652 24.0237 40.6904C23.3986 41.3155 22.5507 41.6667 21.6667 41.6667H11.6667C10.7826 41.6667 9.93476 41.3155 9.30964 40.6904C8.68452 40.0652 8.33333 39.2174 8.33333 38.3333ZM55 95C56.7681 95 58.4638 94.2976 59.714 93.0474C60.9643 91.7971 61.6667 90.1014 61.6667 88.3333V61.6667C61.6667 59.8986 60.9643 58.2029 59.714 56.9526C58.4638 55.7024 56.7681 55 55 55H45C43.2319 55 41.5362 55.7024 40.286 56.9526C39.0357 58.2029 38.3333 59.8986 38.3333 61.6667V88.3333C38.3333 90.1014 39.0357 91.7971 40.286 93.0474C41.5362 94.2976 43.2319 95 45 95H55ZM41.6667 61.6667C41.6667 60.7826 42.0179 59.9348 42.643 59.3096C43.2681 58.6845 44.1159 58.3333 45 58.3333H55C55.8841 58.3333 56.7319 58.6845 57.357 59.3096C57.9821 59.9348 58.3333 60.7826 58.3333 61.6667V63.3333H41.6667V61.6667ZM41.6667 66.6667H58.3333V75H41.6667V66.6667ZM41.6667 78.3333H58.3333V81.7067C52.9893 83.8747 47.0107 83.8747 41.6667 81.7067V78.3333ZM41.6667 88.3333V85.3083C47.0746 87.1194 52.9254 87.1194 58.3333 85.3083V88.3333C58.3333 89.2174 57.9821 90.0652 57.357 90.6904C56.7319 91.3155 55.8841 91.6667 55 91.6667H45C44.1159 91.6667 43.2681 91.3155 42.643 90.6904C42.0179 90.0652 41.6667 89.2174 41.6667 88.3333ZM88.3333 45C90.1014 45 91.7971 44.2976 93.0474 43.0474C94.2976 41.7971 95 40.1014 95 38.3333V11.6667C95 9.89856 94.2976 8.20286 93.0474 6.95262C91.7971 5.70238 90.1014 5 88.3333 5H78.3333C76.5652 5 74.8695 5.70238 73.6193 6.95262C72.369 8.20286 71.6667 9.89856 71.6667 11.6667V38.3333C71.6667 40.1014 72.369 41.7971 73.6193 43.0474C74.8695 44.2976 76.5652 45 78.3333 45H88.3333ZM75 11.6667C75 10.7826 75.3512 9.93476 75.9763 9.30964C76.6014 8.68452 77.4493 8.33333 78.3333 8.33333H88.3333C89.2174 8.33333 90.0652 8.68452 90.6904 9.30964C91.3155 9.93476 91.6667 10.7826 91.6667 11.6667V13.3333H75V11.6667ZM75 16.6667H91.6667V25H75V16.6667ZM75 28.3333H91.6667V31.7067C86.3226 33.8747 80.344 33.8747 75 31.7067V28.3333ZM75 38.3333V35.3083C80.408 37.1194 86.2587 37.1194 91.6667 35.3083V38.3333C91.6667 39.2174 91.3155 40.0652 90.6904 40.6904C90.0652 41.3155 89.2174 41.6667 88.3333 41.6667H78.3333C77.4493 41.6667 76.6014 41.3155 75.9763 40.6904C75.3512 40.0652 75 39.2174 75 38.3333ZM78.3333 95H88.3333C90.1014 95 91.7971 94.2976 93.0474 93.0474C94.2976 91.7971 95 90.1014 95 88.3333V61.6667C95 59.8986 94.2976 58.2029 93.0474 56.9526C91.7971 55.7024 90.1014 55 88.3333 55H78.3333C76.5652 55 74.8695 55.7024 73.6193 56.9526C72.369 58.2029 71.6667 59.8986 71.6667 61.6667V88.3333C71.6667 90.1014 72.369 91.7971 73.6193 93.0474C74.8695 94.2976 76.5652 95 78.3333 95ZM75 61.6667C75 60.7826 75.3512 59.9348 75.9763 59.3096C76.6014 58.6845 77.4493 58.3333 78.3333 58.3333H88.3333C89.2174 58.3333 90.0652 58.6845 90.6904 59.3096C91.3155 59.9348 91.6667 60.7826 91.6667 61.6667V64.6917C86.2587 62.8806 80.408 62.8806 75 64.6917V61.6667ZM75 68.2933C80.344 66.1253 86.3226 66.1253 91.6667 68.2933V71.6667H75V68.2933ZM75 75H91.6667V83.3333H75V75ZM75 86.6667H91.6667V88.3333C91.6667 89.2174 91.3155 90.0652 90.6904 90.6904C90.0652 91.3155 89.2174 91.6667 88.3333 91.6667H78.3333C77.4493 91.6667 76.6014 91.3155 75.9763 90.6904C75.3512 90.0652 75 89.2174 75 88.3333V86.6667ZM11.6667 90V80H15C17.6522 80 20.1957 78.9464 22.0711 77.0711C23.9464 75.1957 25 72.6522 25 70C25 67.3478 23.9464 64.8043 22.0711 62.9289C20.1957 61.0536 17.6522 60 15 60H10C9.55797 60 9.13405 60.1756 8.82149 60.4882C8.50893 60.8007 8.33333 61.2246 8.33333 61.6667V90C8.33333 90.442 8.50893 90.866 8.82149 91.1785C9.13405 91.4911 9.55797 91.6667 10 91.6667C10.442 91.6667 10.866 91.4911 11.1785 91.1785C11.4911 90.866 11.6667 90.442 11.6667 90ZM11.6667 63.3333H15C16.7681 63.3333 18.4638 64.0357 19.714 65.286C20.9643 66.5362 21.6667 68.2319 21.6667 70C21.6667 71.7681 20.9643 73.4638 19.714 74.714C18.4638 75.9643 16.7681 76.6667 15 76.6667H11.6667V63.3333ZM45 38.3333V28.3333H48.3333C50.9855 28.3333 53.529 27.2798 55.4044 25.4044C57.2798 23.529 58.3333 20.9855 58.3333 18.3333C58.3333 15.6812 57.2798 13.1376 55.4044 11.2623C53.529 9.3869 50.9855 8.33333 48.3333 8.33333H43.3333C42.8913 8.33333 42.4674 8.50893 42.1548 8.82149C41.8423 9.13405 41.6667 9.55797 41.6667 10V38.3333C41.6667 38.7754 41.8423 39.1993 42.1548 39.5118C42.4674 39.8244 42.8913 40 43.3333 40C43.7754 40 44.1993 39.8244 44.5118 39.5118C44.8244 39.1993 45 38.7754 45 38.3333ZM45 11.6667H48.3333C50.1014 11.6667 51.7971 12.369 53.0474 13.6193C54.2976 14.8695 55 16.5652 55 18.3333C55 20.1014 54.2976 21.7971 53.0474 23.0474C51.7971 24.2976 50.1014 25 48.3333 25H45V11.6667Z" fill="#1E293C"/>
</g>
<defs>
<clipPath id="clip0_486_9448">
<rect width="100" height="100" fill="white"/>
</clipPath>
</defs>
</svg>
