<svg width="21" height="21" viewBox="0 0 21 21" fill="none" xmlns="http://www.w3.org/2000/svg">
<path d="M14.0004 9.00003H11.0004V6.00003C11.0004 5.73481 10.895 5.48046 10.7075 5.29292C10.52 5.10538 10.2656 5.00003 10.0004 5.00003C9.73518 5.00003 9.48082 5.10538 9.29329 5.29292C9.10575 5.48046 9.00039 5.73481 9.00039 6.00003V9.00003H6.00039C5.73518 9.00003 5.48082 9.10538 5.29329 9.29292C5.10575 9.48046 5.00039 9.73481 5.00039 10C5.00039 10.2652 5.10575 10.5196 5.29329 10.7071C5.48082 10.8947 5.73518 11 6.00039 11H9.00039V14C9.00039 14.2652 9.10575 14.5196 9.29329 14.7071C9.48082 14.8947 9.73518 15 10.0004 15C10.2656 15 10.52 14.8947 10.7075 14.7071C10.895 14.5196 11.0004 14.2652 11.0004 14V11H14.0004C14.2656 11 14.52 10.8947 14.7075 10.7071C14.895 10.5196 15.0004 10.2652 15.0004 10C15.0004 9.73481 14.895 9.48046 14.7075 9.29292C14.52 9.10538 14.2656 9.00003 14.0004 9.00003ZM20.7104 19.29L17.0004 15.61C18.4405 13.8144 19.1379 11.5353 18.9492 9.24133C18.7605 6.94733 17.7001 4.81281 15.9859 3.27667C14.2718 1.74053 12.0342 0.919537 9.73332 0.982497C7.43243 1.04546 5.24311 1.98759 3.61553 3.61517C1.98795 5.24275 1.04582 7.43207 0.982863 9.73295C0.919903 12.0338 1.7409 14.2714 3.27704 15.9855C4.81318 17.6997 6.94769 18.7601 9.24169 18.9488C11.5357 19.1375 13.8148 18.4401 15.6104 17L19.2904 20.68C19.3834 20.7738 19.494 20.8482 19.6158 20.8989C19.7377 20.9497 19.8684 20.9758 20.0004 20.9758C20.1324 20.9758 20.2631 20.9497 20.385 20.8989C20.5068 20.8482 20.6174 20.7738 20.7104 20.68C20.8906 20.4936 20.9914 20.2444 20.9914 19.985C20.9914 19.7257 20.8906 19.4765 20.7104 19.29ZM10.0004 17C8.61592 17 7.26255 16.5895 6.1114 15.8203C4.96026 15.0511 4.06305 13.9579 3.53324 12.6788C3.00342 11.3997 2.8648 9.99226 3.1349 8.63439C3.40499 7.27653 4.07168 6.02925 5.05065 5.05028C6.02961 4.07131 7.27689 3.40463 8.63476 3.13453C9.99263 2.86443 11.4001 3.00306 12.6792 3.53287C13.9583 4.06268 15.0515 4.95989 15.8207 6.11103C16.5899 7.26218 17.0004 8.61556 17.0004 10C17.0004 11.8565 16.2629 13.637 14.9501 14.9498C13.6374 16.2625 11.8569 17 10.0004 17Z" fill="black"/>
</svg>
